<mxfile host="app.diagrams.net" modified="2023-04-23T17:54:17.291Z" agent="Mozilla/5.0 (Windows NT 10.0; Win64; x64; rv:109.0) Gecko/20100101 Firefox/113.0" etag="x6nsZCHYnf0CP8-Y6yH0" version="21.2.1">
  <diagram name="Страница 1" id="6cAusIAV3j4MvlaCoFT2">
    <mxGraphModel dx="845" dy="932" grid="1" gridSize="10" guides="1" tooltips="1" connect="1" arrows="1" fold="1" page="1" pageScale="1" pageWidth="827" pageHeight="1169" math="0" shadow="0">
      <root>
        <mxCell id="0" />
        <mxCell id="1" parent="0" />
        <mxCell id="101TW0Q1xGFcYIwDESfn-1" value="The Beatles" style="rounded=0;whiteSpace=wrap;html=1;fontSize=19;" vertex="1" parent="1">
          <mxGeometry x="40" y="210" width="120" height="70" as="geometry" />
        </mxCell>
        <mxCell id="101TW0Q1xGFcYIwDESfn-3" value="&lt;font style=&quot;font-size: 19px;&quot;&gt;1&lt;/font&gt;" style="rounded=0;whiteSpace=wrap;html=1;fontSize=19;" vertex="1" parent="1">
          <mxGeometry x="75" y="210" width="50" height="20" as="geometry" />
        </mxCell>
        <mxCell id="101TW0Q1xGFcYIwDESfn-4" value="Led Zeppelin" style="rounded=0;whiteSpace=wrap;html=1;fontSize=19;" vertex="1" parent="1">
          <mxGeometry x="200" y="210" width="120" height="70" as="geometry" />
        </mxCell>
        <mxCell id="101TW0Q1xGFcYIwDESfn-5" value="2" style="rounded=0;whiteSpace=wrap;html=1;fontSize=19;" vertex="1" parent="1">
          <mxGeometry x="235" y="210" width="50" height="20" as="geometry" />
        </mxCell>
        <mxCell id="101TW0Q1xGFcYIwDESfn-6" value="Pink Floyd" style="rounded=0;whiteSpace=wrap;html=1;fontSize=19;" vertex="1" parent="1">
          <mxGeometry x="360" y="210" width="120" height="70" as="geometry" />
        </mxCell>
        <mxCell id="101TW0Q1xGFcYIwDESfn-7" value="3" style="rounded=0;whiteSpace=wrap;html=1;fontSize=19;" vertex="1" parent="1">
          <mxGeometry x="395" y="210" width="50" height="20" as="geometry" />
        </mxCell>
        <mxCell id="101TW0Q1xGFcYIwDESfn-8" value="Queen" style="rounded=0;whiteSpace=wrap;html=1;fontSize=19;" vertex="1" parent="1">
          <mxGeometry x="520" y="210" width="120" height="70" as="geometry" />
        </mxCell>
        <mxCell id="101TW0Q1xGFcYIwDESfn-9" value="4" style="rounded=0;whiteSpace=wrap;html=1;fontSize=19;" vertex="1" parent="1">
          <mxGeometry x="555" y="210" width="50" height="20" as="geometry" />
        </mxCell>
        <mxCell id="101TW0Q1xGFcYIwDESfn-10" value="The RS" style="rounded=0;whiteSpace=wrap;html=1;fontSize=19;" vertex="1" parent="1">
          <mxGeometry x="680" y="210" width="120" height="70" as="geometry" />
        </mxCell>
        <mxCell id="101TW0Q1xGFcYIwDESfn-11" value="5" style="rounded=0;whiteSpace=wrap;html=1;fontSize=19;" vertex="1" parent="1">
          <mxGeometry x="715" y="210" width="50" height="20" as="geometry" />
        </mxCell>
        <mxCell id="101TW0Q1xGFcYIwDESfn-12" value="AC/DC" style="rounded=0;whiteSpace=wrap;html=1;fontSize=19;" vertex="1" parent="1">
          <mxGeometry x="40" y="330" width="120" height="70" as="geometry" />
        </mxCell>
        <mxCell id="101TW0Q1xGFcYIwDESfn-13" value="6" style="rounded=0;whiteSpace=wrap;html=1;fontSize=19;" vertex="1" parent="1">
          <mxGeometry x="75" y="330" width="50" height="20" as="geometry" />
        </mxCell>
        <mxCell id="101TW0Q1xGFcYIwDESfn-14" value="Metallica" style="rounded=0;whiteSpace=wrap;html=1;fontSize=19;" vertex="1" parent="1">
          <mxGeometry x="200" y="330" width="120" height="70" as="geometry" />
        </mxCell>
        <mxCell id="101TW0Q1xGFcYIwDESfn-15" value="7" style="rounded=0;whiteSpace=wrap;html=1;fontSize=19;" vertex="1" parent="1">
          <mxGeometry x="235" y="330" width="50" height="20" as="geometry" />
        </mxCell>
        <mxCell id="101TW0Q1xGFcYIwDESfn-16" value="Nirvana" style="rounded=0;whiteSpace=wrap;html=1;fontSize=19;" vertex="1" parent="1">
          <mxGeometry x="360" y="330" width="120" height="70" as="geometry" />
        </mxCell>
        <mxCell id="101TW0Q1xGFcYIwDESfn-17" value="8" style="rounded=0;whiteSpace=wrap;html=1;fontSize=19;" vertex="1" parent="1">
          <mxGeometry x="395" y="330" width="50" height="20" as="geometry" />
        </mxCell>
        <mxCell id="101TW0Q1xGFcYIwDESfn-18" value="Radiohead" style="rounded=0;whiteSpace=wrap;html=1;fontSize=19;" vertex="1" parent="1">
          <mxGeometry x="520" y="330" width="120" height="70" as="geometry" />
        </mxCell>
        <mxCell id="101TW0Q1xGFcYIwDESfn-19" value="9" style="rounded=0;whiteSpace=wrap;html=1;fontSize=19;" vertex="1" parent="1">
          <mxGeometry x="555" y="330" width="50" height="20" as="geometry" />
        </mxCell>
        <mxCell id="101TW0Q1xGFcYIwDESfn-20" value="The Who" style="rounded=0;whiteSpace=wrap;html=1;fontSize=19;" vertex="1" parent="1">
          <mxGeometry x="680" y="330" width="120" height="70" as="geometry" />
        </mxCell>
        <mxCell id="101TW0Q1xGFcYIwDESfn-21" value="10" style="rounded=0;whiteSpace=wrap;html=1;fontSize=19;" vertex="1" parent="1">
          <mxGeometry x="715" y="330" width="50" height="20" as="geometry" />
        </mxCell>
      </root>
    </mxGraphModel>
  </diagram>
</mxfile>
